<?xml version="1.0" encoding="iso-8859-1"?>
<!-- Generator: Adobe Illustrator 19.0.0, SVG Export Plug-In . SVG Version: 6.00 Build 0)  -->
<svg version="1.1" id="Layer_1" xmlns="http://www.w3.org/2000/svg" xmlns:xlink="http://www.w3.org/1999/xlink" x="0px" y="0px"
	 viewBox="0 0 489.1 489.1" style="enable-background:new 0 0 489.1 489.1;" xml:space="preserve">
<g transform="translate(0 -540.36)">
	<g>
		<g>
			<path d="M375.9,932.71v-40.5c0-5.5-4.5-10-10-10s-10,4.5-10,10v40.5c0,5.5,4.5,10,10,10S375.9,938.31,375.9,932.71z"/>
			<path d="M365.9,953.41c-16.9,0-30.6,13.7-30.6,30.6c0,16.9,13.7,30.6,30.6,30.6c16.8,0,30.5-13.8,30.6-30.6
				C396.5,967.11,382.8,953.41,365.9,953.41z M365.9,994.51c-6,0-10.6-4.6-10.6-10.6c0-5.9,4.7-10.6,10.6-10.6
				c5.9,0,10.5,4.7,10.5,10.6C376.4,989.91,371.9,994.51,365.9,994.51z"/>
			<path d="M213.1,932.71v-40.5c0-5.5-4.5-10-10-10s-10,4.5-10,10v40.5c0,5.5,4.5,10,10,10S213.1,938.31,213.1,932.71z"/>
			<path d="M203.5,953.41c-16.9,0-30.6,13.7-30.6,30.6c0,16.9,13.7,30.6,30.6,30.6c16.4,0,29.8-13.8,29.8-30.6
				C233.3,967.11,219.9,953.41,203.5,953.41z M203.5,994.51c-6,0-10.6-4.6-10.6-10.6c0-5.9,4.7-10.6,10.6-10.6
				c5.3,0,9.8,4.9,9.8,10.6C213.3,989.61,208.8,994.51,203.5,994.51z"/>
			<path d="M284.3,922.81c-16.4,0-29.8,13.7-29.8,30.6c0,16.9,13.4,30.6,29.8,30.6c16.9,0,30.6-13.7,30.6-30.6
				C314.9,936.51,301.2,922.81,284.3,922.81z M284.3,963.91c-5.3,0-9.8-4.9-9.8-10.6c0-5.7,4.5-10.6,9.8-10.6
				c5.9,0,10.6,4.7,10.6,10.6C294.9,959.21,290.2,963.91,284.3,963.91z"/>
			<path d="M121.9,922.81c-16.9,0-30.6,13.7-30.6,30.6c0,16.9,13.7,30.6,30.6,30.6c16.9,0,30.6-13.7,30.6-30.6
				C152.5,936.51,138.8,922.81,121.9,922.81z M121.9,963.91c-6,0-10.6-4.6-10.6-10.6c0-5.9,4.7-10.6,10.6-10.6
				c6,0,10.6,4.7,10.6,10.6C132.5,959.21,127.9,963.91,121.9,963.91z"/>
			<path d="M397.3,616.41c-8,0-16.6,1.3-24.7,3.7c-21.5-39.7-62.6-64.9-107.1-64.9c-26.2,0-51.3,8.3-72.5,24
				c-18,13.4-32.2,31.7-40.6,52.3c-9.8-2.5-20-3.8-30.4-3.8c-67.3,0-122,54.5-122,121.6c0,64.1,49.4,116.8,112,122v30.9
				c0,5.5,4.5,10,10,10s10-4.5,10-10v-30.5h121.9c7.2,0,14.2-0.8,20.9-2.4v32.9c0,5.5,4.5,10,10,10s10-4.5,10-10v-40.2
				c24.3-12.2,42.4-34.9,48.5-62h54.2c50.5,0,91.6-41.2,91.6-91.8S447.8,616.41,397.3,616.41z M253.8,851.71H121.9
				c-56.3,0-102-45.9-102-102.4c0-56,45.8-101.6,102-101.6c40.6,0,77.1,23.7,93,60.5c2.1,4.9,7.8,7.3,12.8,5.4
				c8.2-3.2,16.7-4.7,26.1-4.7c39.5,0,71.6,31.9,71.6,71C325.4,819.41,293.3,851.71,253.8,851.71z M397.3,779.91L397.3,779.91h-52
				v-0.1c0-24.5-9.5-47.4-26.9-64.5c-17.3-17.1-40.2-26.5-64.7-26.5c-8.6,0-16.7,1-24.5,3.1c-12.8-24.3-33.4-43.1-58-53.9
				c15.7-37.4,53.3-62.8,94.2-62.8c39.7,0,76.2,24.1,93,61.4c2.2,4.9,8,7.2,13,5.1c8.1-3.4,17.6-5.3,25.9-5.3
				c39.5,0,71.6,32.2,71.6,71.8S436.8,779.91,397.3,779.91z"/>
		</g>
	</g>
</g>
<g>
</g>
<g>
</g>
<g>
</g>
<g>
</g>
<g>
</g>
<g>
</g>
<g>
</g>
<g>
</g>
<g>
</g>
<g>
</g>
<g>
</g>
<g>
</g>
<g>
</g>
<g>
</g>
<g>
</g>
</svg>
