<?xml version="1.0" standalone="no"?>
<!DOCTYPE svg PUBLIC "-//W3C//DTD SVG 20010904//EN"
 "http://www.w3.org/TR/2001/REC-SVG-20010904/DTD/svg10.dtd">
<svg version="1.0" xmlns="http://www.w3.org/2000/svg"
 width="512.000000pt" height="512.000000pt" viewBox="0 0 512.000000 512.000000"
 preserveAspectRatio="xMidYMid meet">

<g transform="translate(0.000000,512.000000) scale(0.100000,-0.100000)"
fill="#000000" stroke="none">
<path d="M2170 5085 c-287 -51 -526 -163 -734 -343 -268 -233 -451 -590 -472
-922 -9 -142 -7 -137 -71 -145 -145 -18 -322 -86 -454 -175 -80 -54 -202 -176
-258 -259 -329 -485 -194 -1114 307 -1428 84 -53 182 -94 296 -126 l81 -22
1560 0 c1471 0 1565 1 1645 18 397 86 725 333 908 685 50 94 104 255 123 362
17 96 17 334 0 430 -47 265 -180 509 -380 703 -245 236 -562 366 -896 367
l-100 0 -32 68 c-43 92 -127 219 -198 300 -211 240 -469 394 -785 469 -130 31
-416 41 -540 18z m415 -337 c197 -30 414 -138 579 -289 111 -101 233 -291 281
-437 22 -67 66 -118 113 -133 25 -7 72 -8 142 -2 213 17 372 -12 545 -97 438
-216 640 -703 481 -1159 -98 -281 -358 -519 -655 -600 -144 -40 -264 -42
-1736 -39 l-1410 4 -73 22 c-156 48 -273 124 -365 237 -166 206 -194 491 -70
728 56 107 182 230 293 285 123 61 183 74 340 76 151 3 181 12 222 68 22 32
23 41 24 223 1 203 13 289 58 409 190 504 685 787 1231 704z"/>
<path d="M971 1129 c-199 -38 -253 -312 -83 -424 115 -76 276 -34 336 87 89
179 -58 374 -253 337z"/>
<path d="M2001 1129 c-199 -38 -253 -312 -83 -424 115 -76 276 -34 336 87 89
179 -58 374 -253 337z"/>
<path d="M3055 1133 c-92 -20 -146 -62 -181 -138 -31 -65 -31 -126 0 -190 42
-89 114 -136 210 -137 131 -1 236 102 236 232 0 120 -86 215 -210 233 -19 2
-44 3 -55 0z"/>
<path d="M4085 1133 c-92 -20 -146 -62 -181 -138 -31 -65 -31 -126 0 -190 42
-89 114 -136 210 -137 131 -1 236 102 236 232 0 120 -86 215 -210 233 -19 2
-44 3 -55 0z"/>
<path d="M1465 477 c-53 -14 -136 -98 -153 -153 -55 -186 111 -346 302 -293
51 14 128 91 144 145 39 133 -27 262 -156 300 -52 16 -81 16 -137 1z"/>
<path d="M2495 477 c-53 -14 -136 -98 -153 -153 -55 -186 111 -346 302 -293
51 14 128 91 144 145 39 133 -27 262 -156 300 -52 16 -81 16 -137 1z"/>
<path d="M3534 476 c-62 -20 -110 -62 -140 -122 -23 -48 -26 -63 -21 -121 6
-77 37 -130 106 -178 39 -27 50 -30 120 -30 69 0 83 3 127 30 89 56 131 162
103 262 -18 67 -97 145 -161 161 -58 15 -81 14 -134 -2z"/>
</g>
</svg>
